#N canvas 0 23 450 300 10;
#X obj 273 93 inlet;
#X obj 186 54 inlet;
#X obj 63 137 spigot;
#X obj 87 34 loadbang;
#X msg 87 73 1;
#X msg 51 74 0;
#X obj 202 151 delay \$1;
#X obj 60 169 t b;
#X obj 104 261 outlet;
#X obj 165 191 list;
#X connect 0 0 6 1;
#X connect 1 0 2 0;
#X connect 1 0 9 1;
#X connect 2 0 7 0;
#X connect 2 0 8 0;
#X connect 3 0 4 0;
#X connect 4 0 2 1;
#X connect 5 0 2 1;
#X connect 6 0 4 0;
#X connect 6 0 9 0;
#X connect 7 0 5 0;
#X connect 7 0 6 0;
#X connect 9 0 8 0;
