#N canvas 0 23 509 353 10;
#X obj 47 17 inlet;
#X obj 47 59 + 1;
#X obj 47 110 -;
#X obj 47 196 pack f f;
#X obj 47 131 t b f;
#X obj 47 152 f;
#X text 107 196 // start position \, duration (in samples);
#X obj 47 301 outlet~;
#X obj 197 79 text get \$2-segments;
#X obj 47 79 text get \$2-segments;
#X obj 47 223 tabplay~ \$2-sample;
#X obj 47 274 *~;
#X obj 242 258 vline~;
#X obj 242 145 / 44.1;
#X obj 242 166 - 50;
#X msg 242 236 0 \, 1 50 0 \, 0 50 \$1;
#X obj 412 262 switch~;
#X obj 412 159 delay;
#X obj 412 180 0;
#X obj 385 181 1;
#X obj 47 38 t f f b;
#X connect 0 0 20 0;
#X connect 1 0 9 0;
#X connect 2 0 4 0;
#X connect 3 0 10 0;
#X connect 4 0 5 0;
#X connect 4 1 13 0;
#X connect 4 1 3 1;
#X connect 5 0 3 0;
#X connect 8 0 2 1;
#X connect 8 0 5 1;
#X connect 9 0 2 0;
#X connect 10 0 11 0;
#X connect 11 0 7 0;
#X connect 12 0 11 1;
#X connect 13 0 14 0;
#X connect 13 0 17 0;
#X connect 14 0 15 0;
#X connect 15 0 12 0;
#X connect 17 0 18 0;
#X connect 18 0 16 0;
#X connect 19 0 16 0;
#X connect 20 0 1 0;
#X connect 20 1 8 0;
#X connect 20 2 19 0;
