#N canvas 1680 25 1920 999 12;
#X obj 44 42 inlet;
#X obj 44 458 outlet~;
#X obj 274 120 switch~;
#X obj 301 93 0;
#X obj 274 93 1;
#X obj 169 458 outlet;
#X obj 44 328 tabplay~ \$2-sample;
#X obj 44 74 t f b b;
#X obj 43 225 pack f 8192;
#X obj 44 426 *~;
#X obj 186 328 tabplay~ \$2-hann;
#X connect 0 0 7 0;
#X connect 3 0 2 0;
#X connect 4 0 2 0;
#X connect 6 0 9 0;
#X connect 6 1 5 0;
#X connect 6 1 3 0;
#X connect 7 0 8 0;
#X connect 7 1 10 0;
#X connect 7 2 4 0;
#X connect 8 0 6 0;
#X connect 9 0 1 0;
#X connect 10 0 9 1;
